<?xml version="1.0" standalone="no"?>
<!DOCTYPE svg PUBLIC "-//W3C//DTD SVG 20010904//EN"
 "http://www.w3.org/TR/2001/REC-SVG-20010904/DTD/svg10.dtd">
<svg version="1.0" xmlns="http://www.w3.org/2000/svg"
 width="300.000000pt" height="300.000000pt" viewBox="0 0 300.000000 300.000000"
 preserveAspectRatio="xMidYMid meet">
<metadata>
Created by potrace 1.10, written by Peter Selinger 2001-2011
</metadata>
<g transform="translate(0.000000,300.000000) scale(0.100000,-0.100000)"
fill="#000000" stroke="none">
<path d="M121 2876 c-8 -10 -11 -339 -9 -1267 l3 -1254 28 -56 c32 -66 99
-132 165 -162 l47 -22 1175 0 1175 0 54 30 c58 32 103 90 121 155 15 55 13
2303 -2 2318 -9 9 -69 12 -210 12 l-198 0 0 118 c0 78 -4 122 -12 130 -19 19
-2321 17 -2337 -2z m2269 -1303 c0 -802 4 -1251 10 -1274 6 -20 21 -53 35 -73
l24 -36 -1022 0 c-1156 0 -1094 -4 -1172 75 -80 79 -75 -4 -75 1347 l0 1198
1100 0 1100 0 0 -1237z m76 1032 c7 -18 -14 -47 -27 -39 -5 3 -9 16 -9 30 0
27 27 34 36 9z m339 -1177 l0 -1123 -24 -38 c-63 -102 -220 -100 -284 3 l-22
35 -3 1115 c-1 613 -1 1119 2 1125 2 6 64 9 167 8 l164 -2 0 -1123z m-261
-1270 c-7 -11 -71 -11 -78 0 -3 5 2 18 10 30 l15 22 29 -22 c16 -12 27 -25 24
-30z"/>
<path d="M410 2520 c0 -83 2 -90 20 -90 16 0 19 8 22 57 l3 57 39 -57 c24 -34
47 -57 58 -57 16 0 18 9 18 90 0 85 -1 90 -21 90 -20 0 -21 -3 -15 -55 3 -30
3 -55 -1 -55 -5 1 -25 25 -46 55 -24 35 -45 55 -57 55 -18 0 -20 -7 -20 -90z"/>
<path d="M610 2520 l0 -90 70 0 c63 0 70 2 70 20 0 17 -7 20 -50 20 -44 0 -50
3 -50 21 0 18 5 20 42 17 34 -2 43 1 46 15 3 14 -4 17 -42 17 -40 0 -46 3 -46
21 0 18 5 20 47 18 39 -3 48 0 51 14 3 15 -6 17 -67 17 l-71 0 0 -90z"/>
<path d="M789 2520 c22 -77 29 -90 47 -90 17 0 23 8 28 33 4 17 13 46 20 62
l13 30 20 -60 c14 -43 25 -61 39 -63 17 -2 23 9 41 70 12 40 25 81 29 91 6 15
3 18 -17 15 -19 -2 -26 -13 -38 -63 l-15 -60 -20 63 c-16 51 -24 62 -42 62
-18 0 -24 -10 -38 -60 -9 -33 -19 -60 -21 -60 -2 0 -9 27 -16 60 -10 52 -15
60 -34 60 l-23 0 27 -90z"/>
<path d="M1065 2594 c-9 -9 -15 -28 -13 -43 2 -20 12 -29 48 -42 25 -9 45 -23
45 -30 0 -13 -12 -15 -74 -7 -33 4 -37 -16 -6 -30 39 -18 83 -14 105 8 35 35
23 65 -36 85 -43 15 -59 45 -24 45 12 0 30 -4 40 -10 14 -7 20 -6 24 7 4 9 1
20 -6 25 -22 14 -86 9 -103 -8z"/>
<path d="M1210 2520 l0 -90 65 0 c58 0 65 2 65 20 0 17 -7 20 -45 20 l-45 0 0
70 c0 63 -2 70 -20 70 -19 0 -20 -7 -20 -90z"/>
<path d="M1362 2520 l3 -90 68 0 c60 0 67 2 67 20 0 17 -7 20 -50 20 -44 0
-50 2 -50 21 0 19 5 21 45 17 38 -3 45 0 45 14 0 15 -9 18 -45 18 -39 0 -45 3
-45 21 0 19 5 21 50 17 42 -2 50 0 50 15 0 15 -10 17 -70 17 l-70 0 2 -90z"/>
<path d="M1520 2590 c0 -17 5 -19 31 -13 l31 6 -4 -77 c-3 -71 -2 -76 17 -76
19 0 20 5 17 76 l-4 77 31 -6 c26 -6 31 -4 31 13 0 18 -7 20 -75 20 -68 0 -75
-2 -75 -20z"/>
<path d="M1690 2600 c0 -5 0 -13 0 -17 1 -5 12 -7 25 -5 25 3 25 2 25 -72 0
-69 2 -76 20 -76 18 0 20 7 20 76 0 76 0 76 25 72 19 -4 25 -1 25 13 0 17 -8
19 -70 19 -40 0 -70 -4 -70 -10z"/>
<path d="M1860 2520 l0 -90 70 0 c63 0 70 2 70 20 0 17 -7 20 -50 20 -43 0
-50 3 -50 20 0 17 7 20 45 20 33 0 45 4 45 15 0 11 -12 15 -45 15 -39 0 -45 3
-45 21 0 18 5 20 47 18 39 -3 48 0 51 14 3 15 -6 17 -67 17 l-71 0 0 -90z"/>
<path d="M2023 2520 c0 -81 2 -90 19 -90 13 0 18 8 18 30 0 22 5 30 18 30 10
0 26 -13 35 -30 13 -21 26 -30 43 -30 l26 0 -27 31 c-26 31 -26 32 -5 46 25
18 26 64 2 86 -13 12 -36 17 -74 17 l-56 0 1 -90z m91 54 c9 -3 16 -14 16 -24
0 -19 -19 -30 -51 -30 -14 0 -19 7 -19 30 0 31 17 38 54 24z"/>
<path d="M336 2254 c-14 -13 -16 -55 -16 -303 0 -210 3 -290 12 -299 17 -17
1009 -17 1026 0 17 17 17 589 0 606 -9 9 -136 12 -509 12 -439 0 -499 -2 -513
-16z m954 -299 l0 -235 -445 0 -445 0 0 235 0 235 445 0 445 0 0 -235z"/>
<path d="M1590 2140 c-8 -14 -8 -26 0 -40 10 -19 21 -20 329 -20 343 0 347 1
339 52 l-3 23 -327 3 c-319 2 -327 2 -338 -18z"/>
<path d="M1590 1930 c-8 -14 -8 -26 0 -40 10 -19 21 -20 329 -20 343 0 347 1
339 52 l-3 23 -327 3 c-319 2 -327 2 -338 -18z"/>
<path d="M1590 1720 c-8 -14 -8 -26 0 -40 10 -19 21 -20 329 -20 343 0 347 1
339 52 l-3 23 -327 3 c-319 2 -327 2 -338 -18z"/>
<path d="M332 1518 c-15 -15 -15 -41 0 -56 9 -9 236 -12 959 -12 1024 0 975
-3 967 52 l-3 23 -955 3 c-735 2 -959 -1 -968 -10z"/>
<path d="M332 1308 c-7 -7 -12 -19 -12 -28 0 -40 -12 -40 971 -40 1032 0 979
-3 965 55 l-6 25 -953 0 c-728 0 -956 -3 -965 -12z"/>
<path d="M332 1098 c-16 -16 -15 -43 2 -57 10 -8 269 -10 961 -9 890 3 948 4
959 20 8 13 8 23 0 35 -11 17 -69 18 -961 21 -730 2 -952 -1 -961 -10z"/>
<path d="M332 888 c-16 -16 -15 -43 2 -57 10 -8 269 -10 961 -9 890 3 948 4
959 20 8 13 8 23 0 35 -11 17 -69 18 -961 21 -730 2 -952 -1 -961 -10z"/>
<path d="M332 678 c-15 -15 -15 -41 0 -56 9 -9 235 -12 954 -12 518 0 949 3
958 6 19 7 21 45 4 62 -17 17 -1899 17 -1916 0z"/>
<path d="M332 468 c-7 -7 -12 -19 -12 -28 0 -40 -12 -40 966 -40 518 0 949 3
958 6 19 7 21 45 4 62 -17 17 -1899 17 -1916 0z"/>
</g>
</svg>
